<svg width="159" height="140" viewBox="0 0 159 140" fill="none" xmlns="http://www.w3.org/2000/svg">
<path d="M157.77 32.3113C155.165 38.3227 153.224 44.5163 151.232 50.7059C149.747 55.1056 148.646 59.7072 148.001 64.2851C147.296 67.1759 146.832 70.1183 146.492 73.0804C145.866 77.7415 146.096 82.5649 147.256 87.1625C147.739 88.7426 148.488 90.1564 149.466 91.4988C150.187 92.3898 150.139 93.0512 149.05 93.5502C145.823 95.0352 142.536 96.3222 139.692 98.4448C134.061 102.203 129.202 107.137 125.333 112.689C124.26 114.21 123.333 115.83 122.541 117.517C121.187 120.566 119.258 123.631 119.266 127.033C119.262 128.264 118.47 128.221 117.611 127.381C116.13 125.797 114.3 124.49 112.328 123.54C111.128 122.791 110.095 121.825 108.717 121.417C106.404 120.609 104.123 119.639 101.672 119.524C100.693 119.469 99.7193 119.469 98.7411 119.417C95.086 119.124 91.4031 119.271 87.9142 120.479C86.8688 120.875 85.8154 121.283 84.7184 121.524C82.1127 121.996 79.7208 123.081 77.3566 124.205C74.9608 125.187 72.9887 126.827 70.9888 128.443C70.4661 128.835 69.9275 129.191 69.3889 129.559C66.8267 131.318 64.8269 133.705 62.6172 135.836C61.9242 136.648 58.8789 141.919 59.4293 137.864C59.6392 136.672 59.2867 135.484 58.8115 134.391C58.2967 133.278 57.9878 132.026 57.2671 131.032C56.3285 129.951 55.2158 128.981 54.0792 128.157C53.6 127.849 53.0773 127.619 52.5585 127.377C50.7448 126.407 49.1291 125.179 46.9986 125.187C45.9729 125.08 44.971 124.775 43.9453 124.633C41.2049 124.34 38.4567 125.076 35.7004 124.946C33.8867 124.962 32.1165 125.516 30.3226 125.944C29.9385 126.051 29.2851 126.162 29.0514 125.991C28.8178 125.857 28.893 125.496 29.1504 125.033C29.297 124.772 29.4712 124.502 29.6494 124.229C30.9127 122.538 31.3206 120.443 32.4254 118.681C32.869 117.814 32.6155 116.784 32.8412 115.834C33.2333 114.487 33.6055 113.121 33.5065 111.687C33.5818 109.616 32.5957 107.81 31.9977 105.898C31.5186 104.179 31.2928 102.33 30.5879 100.702C29.5148 98.8804 28.2713 97.1222 26.9526 95.447C25.618 93.7323 23.4321 93.0433 21.8876 91.6374C18.482 88.105 13.8803 85.6933 9.52818 83.4955C8.6926 83.0718 7.82534 82.7035 6.89868 82.5688C5.86906 82.3787 4.71666 82.5411 3.79396 82.1411C3.35835 81.9748 2.95442 81.7332 2.52277 81.5432C1.79016 81.1749 0.808061 81.1313 0.277409 80.6205C-0.189882 80.2284 -0.0473221 79.6384 0.558572 79.4126C1.20803 79.1671 1.94064 79.1196 2.62574 78.9533C4.96219 78.3355 7.44913 78.7077 9.78558 78.1573C11.6072 77.3653 13.5675 77.3336 15.4881 77.0326C17.5751 76.4069 19.3413 74.8942 21.5154 74.609C23.0994 74.2843 24.7983 74.815 26.4536 74.4229C27.6377 74.1338 28.8732 73.9398 29.9741 73.425C32.0175 72.4864 33.9501 71.0766 36.1519 70.5103C37.6171 70.0153 38.8527 69.0015 40.3733 68.5343C42.3653 67.9759 44.0562 66.6532 45.8581 65.7424C47.4579 65.1999 49.0895 64.5742 50.432 63.4139C52.1625 62.111 53.3902 60.2577 55.0257 58.8993C55.7464 58.3172 56.5266 57.8143 57.2829 57.2757C58.7363 56.4005 59.5125 54.8284 60.7718 53.775C61.3579 53.2919 62.0311 52.8919 62.5301 52.3216C63.3419 51.292 63.6151 49.9416 64.5576 48.9912C65.5833 47.5933 66.7674 46.2746 67.4327 44.647C67.9792 42.8887 69.5275 41.7284 70.2047 40.0691C70.6483 38.9642 70.2918 37.7564 70.7512 36.7426C70.9611 36.2437 71.3492 35.8239 71.6145 35.3526C72.0501 34.6477 72.0699 33.6498 72.4026 32.9885C72.6323 32.4737 73.0599 32.1054 73.3847 31.6539C74.0777 30.5649 74.1015 29.0482 74.7588 27.8958C75.5786 26.0504 75.0836 23.8803 75.0796 21.9438C75.1509 20.3003 76.1924 18.8193 76.4419 17.0768C76.7508 15.4651 76.8418 13.7187 76.7824 12.0356C76.6755 11.1446 76.2082 10.2853 76.2003 9.36652C76.4894 7.25183 76.9369 5.46186 76.6993 3.23629C76.6874 2.30171 76.4221 1.37505 76.2874 0.476109C76.2676 0.242464 76.2874 0.0840602 76.3706 0.0246589C76.4339 -0.0228622 76.5488 -0.00306166 76.7032 0.0959406C77.3329 0.551351 77.8002 1.28001 78.1724 2.0047C78.6674 3.48182 79.5505 4.72925 80.2554 6.09152C81.4553 8.6537 82.0335 11.6238 83.9937 13.7503C84.6947 14.5899 84.9719 15.6433 85.4748 16.6056C86.6312 18.847 88.0885 20.831 90.0606 22.3873C90.7655 22.91 91.2486 23.6228 91.6248 24.399C92.4446 25.8167 93.8504 27.08 94.8563 28.4423C95.783 29.3056 96.8086 29.3333 97.866 30.1887C98.9985 31.0005 99.5688 32.2598 100.848 32.9647C101.45 33.436 101.798 34.1527 102.345 34.6319C103.077 35.1863 104.21 35.4714 104.915 36.1763C106.483 37.8198 108.713 38.3227 110.625 39.5345C111.699 40.3107 112.918 40.77 114.209 41.0433C115.583 41.3641 117.001 41.97 118.363 41.8908C118.89 41.8749 119.421 41.8155 119.947 41.9026C120.933 42.061 121.813 42.9164 122.85 43.0709C123.848 43.2491 124.933 42.9679 126.006 42.9996C127.44 43.0154 128.913 43.3045 130.287 43.2293C131.709 43.1144 133.103 42.5877 134.544 42.5838C136.041 42.2868 137.522 41.7046 138.984 41.2928C140.191 40.8492 141.415 40.6671 142.56 39.9859C143.142 39.6652 143.752 39.4157 144.381 39.2137C145.759 38.7781 146.991 37.9227 148.353 37.3683C149.977 36.6634 151.252 35.4477 152.67 34.4893C153.604 33.8716 154.709 33.4756 155.489 32.7429L155.564 32.6796C156.947 31.4044 159.612 27.9552 157.774 32.3153L157.77 32.3113Z" fill="#F5693C"/>
<path d="M138.746 60.7566V60.8596C138.73 64.5148 137.542 68.1145 136.587 71.6271C135.253 75.9871 134.002 80.4027 132.398 84.6835C131.293 87.5546 125.78 98.9596 121.975 96.9202C120.224 95.1698 121.405 91.0791 121.135 88.7466C121.115 88.4773 121.072 88.0258 120.886 87.8991C120.545 87.7922 120.312 88.402 120.106 88.703C119.139 90.8494 116.894 91.8236 115.619 89.4237C115.049 88.2634 114.843 87.9466 114.684 89.4356C114.482 93.0749 111.088 104.361 105.988 100.306C104.487 98.9715 104.594 96.6232 104.273 94.7738C104.024 92.18 103.778 89.5821 103.806 86.9962C104.127 80.264 104.733 73.3972 106.847 66.9779C108.134 63.3386 111.243 57.2995 115.884 60.1389C117.793 61.8694 119.254 64.2296 120.209 66.6176C120.632 67.7898 120.747 69.1243 120.826 70.3401C120.89 70.7796 120.882 71.3657 121.207 71.6865C121.254 71.7182 121.325 71.7063 121.381 71.6984C121.919 71.3182 122.133 70.3044 122.513 69.6866C123.844 67.1086 125.202 64.4752 126.743 61.9882C128.735 58.8677 131.095 55.565 134.548 54.0878C138.278 53.2641 139.055 58.0321 138.738 60.7606L138.746 60.7566Z" fill="#F0EBE6"/>
<path d="M102.131 89.5781C102.131 86.9961 101.256 84.6042 100.741 82.0816C100.127 78.6205 98.6145 75.4366 96.6186 72.5655C93.9614 68.9262 89.5736 65.2195 84.8096 65.8135C82.8454 66.0432 81.2416 67.3936 79.6496 68.2371C79.0675 68.542 78.4774 68.8232 77.9903 69.2667C77.1389 70.031 76.7152 71.2349 76.0736 72.1972C75.4281 73.211 74.5213 74.0901 74.0025 75.1752C73.7055 75.7811 73.5194 76.4464 73.3452 77.0998C72.9095 78.8739 72.1136 80.4976 72.0264 82.2915C71.8641 85.7526 72.2363 89.2969 72.8303 92.6907C72.9372 94.54 73.7887 96.2389 74.5055 97.914C75.939 100.864 77.8003 103.961 81.1386 104.987C84.8175 106.206 88.8251 104.353 91.0705 101.292C91.5101 100.753 92.1398 100.393 92.6744 101.07C94.5713 104.139 98.9828 103.252 100.987 100.868C101.945 99.502 101.497 97.6408 102.028 96.1122L102.048 96.0092C102.547 93.8866 102.214 91.7284 102.123 89.5741L102.131 89.5781ZM89.5261 94.0728C89.336 96.7696 87.6371 97.7636 85.9303 95.2727C84.7146 93.6451 84.4651 91.5621 85.3482 89.6216C85.9977 88.1287 87.4114 88.0574 88.3658 89.4276C89.3241 90.7582 89.5696 92.3422 89.538 93.9777L89.5261 94.0767V94.0728Z" fill="#F0EBE6"/>
<path d="M69.3887 94.6907C67.7888 93.8274 66.0305 93.4195 64.2564 93.2967C63.1674 93.17 61.1319 93.6333 61.318 91.9503C61.8051 90.1485 62.0902 88.3664 61.9793 86.422C61.9081 84.8538 61.421 83.3173 61.1042 81.8006C60.6646 80.4779 60.4626 79.0285 59.6033 77.9038C57.7698 75.8604 55.1878 74.7793 52.5781 74.2526C51.6673 73.9992 50.7168 73.9636 49.7902 74.1497C48.3249 74.3081 46.9151 74.5298 45.6281 75.3258C43.6164 76.2683 41.3908 77.0009 39.7791 78.5771C38.2386 80.2363 37.5891 82.4461 36.6546 84.5132C35.9813 86.1725 36.1675 88.014 36.9318 89.598C37.8426 91.5662 38.4406 93.7046 39.4583 95.6292C41.3314 98.8963 43.2996 102.195 45.8222 105.027C48.3844 107.64 51.5445 109.905 55.1838 110.646C61.1834 111.85 67.9274 110.65 71.8994 105.621L71.9707 105.537C75.2734 102.14 73.222 96.6074 69.3887 94.6867V94.6907ZM52.7801 95.851C50.9663 96.1322 49.4457 93.1977 50.004 91.479C50.5743 89.7366 52.8672 88.7981 54.2572 90.2039C54.7997 90.7781 55.2353 91.6374 55.4729 92.374L55.4888 92.4611C55.5284 93.8393 54.2017 95.5738 52.7801 95.851ZM62.609 102.821L62.5773 102.904C61.3497 105.355 54.9621 105.205 56.261 101.53C56.7758 100.623 58.241 100.148 59.2786 100.017C61.0646 100.001 63.009 101.019 62.609 102.821Z" fill="#F0EBE6"/>
</svg>
