<svg width="48" height="48" viewBox="0 0 48 48" fill="none" xmlns="http://www.w3.org/2000/svg">
<path d="M1.81348 40.5835V37.376C1.81348 36.1434 2.10614 35.133 2.69148 34.345C3.27648 33.557 4.05631 32.9297 5.03098 32.463C6.83098 31.5964 8.77781 30.8757 10.8715 30.301C12.9655 29.7264 15.3145 29.439 17.9185 29.439C20.5225 29.439 22.8693 29.7224 24.959 30.289C27.049 30.8557 28.998 31.5724 30.806 32.439C31.7726 32.9137 32.5485 33.5479 33.1335 34.3415C33.7188 35.1349 34.0115 36.1464 34.0115 37.376V40.5835C34.0115 41.0729 33.8498 41.479 33.5265 41.802C33.2035 42.1254 32.7973 42.287 32.308 42.287H3.51698C3.02764 42.287 2.62148 42.1254 2.29848 41.802C1.97514 41.479 1.81348 41.0729 1.81348 40.5835ZM5.23198 38.8685H30.605V37.412C30.605 36.912 30.4633 36.5097 30.18 36.205C29.8966 35.9004 29.555 35.6647 29.155 35.498C27.7216 34.8647 26.1296 34.2642 24.379 33.6965C22.628 33.1292 20.4745 32.8455 17.9185 32.8455C15.3621 32.8455 13.2086 33.1312 11.458 33.7025C9.70731 34.2742 8.11531 34.8735 6.68198 35.5005C6.27398 35.6655 5.93031 35.9004 5.65098 36.205C5.37164 36.5097 5.23198 36.912 5.23198 37.412V38.8685ZM17.9185 26.439C15.6348 26.439 13.763 25.6955 12.303 24.2085C10.8433 22.7215 10.1135 20.8854 10.1135 18.7H9.61348C9.32181 18.7 9.06831 18.592 8.85298 18.376C8.63764 18.1604 8.52998 17.9062 8.52998 17.6135C8.52998 17.3245 8.63764 17.072 8.85298 16.856C9.06831 16.6404 9.32181 16.5325 9.61348 16.5325H10.1135C10.1135 15.1595 10.4688 13.9177 11.1795 12.807C11.8898 11.6967 12.8221 10.812 13.9765 10.153V12.1105C13.9765 12.3215 14.0506 12.5 14.199 12.646C14.347 12.792 14.5268 12.865 14.7385 12.865C14.9638 12.865 15.1471 12.7924 15.2885 12.647C15.4298 12.5017 15.5005 12.3255 15.5005 12.1185V9.52702C15.7698 9.46836 16.1395 9.41202 16.6095 9.35802C17.0791 9.30402 17.5325 9.27702 17.9695 9.27702C18.3981 9.27702 18.8458 9.30402 19.3125 9.35802C19.7791 9.41202 20.149 9.46819 20.422 9.52653V12.1185C20.422 12.3255 20.493 12.5017 20.635 12.647C20.7773 12.7924 20.9651 12.865 21.1985 12.865C21.4065 12.865 21.5855 12.792 21.7355 12.646C21.8855 12.5 21.9605 12.323 21.9605 12.115V10.153C23.1068 10.812 24.0185 11.6965 24.6955 12.8065C25.3728 13.9169 25.7115 15.1589 25.7115 16.5325H26.2115C26.5031 16.5325 26.7566 16.6402 26.972 16.8555C27.1873 17.0705 27.295 17.3237 27.295 17.615C27.295 17.9064 27.1873 18.16 26.972 18.376C26.7566 18.592 26.5031 18.7 26.2115 18.7H25.7115C25.7115 20.889 24.9835 22.7262 23.5275 24.2115C22.0718 25.6965 20.2021 26.439 17.9185 26.439ZM17.924 23.0205C19.2843 23.0205 20.3545 22.6144 21.1345 21.802C21.9148 20.99 22.305 19.932 22.305 18.628H13.532C13.532 19.9297 13.9215 20.9872 14.7005 21.8005C15.4791 22.6139 16.5536 23.0205 17.924 23.0205ZM33.1775 28.5695L33.1275 28.0695C32.8941 27.9362 32.652 27.7862 32.401 27.6195C32.1496 27.4529 31.9233 27.2822 31.722 27.1075L31.168 27.4075C30.9303 27.5409 30.7031 27.5747 30.4865 27.509C30.2695 27.4434 30.0825 27.312 29.9255 27.115L29.8775 27.0195C29.7108 26.7862 29.6525 26.5445 29.7025 26.2945C29.7525 26.0445 29.8775 25.8362 30.0775 25.6695L30.6275 25.2695C30.5608 25.1362 30.5275 25.0112 30.5275 24.8945V24.1445C30.5275 24.0279 30.5608 23.9029 30.6275 23.7695L30.0775 23.3695C29.8775 23.2029 29.7525 23.0029 29.7025 22.7695C29.6525 22.5362 29.7108 22.3029 29.8775 22.0695L29.9275 21.9195C30.0861 21.7195 30.2751 21.5862 30.4945 21.5195C30.7138 21.4529 30.9415 21.4862 31.1775 21.6195L31.7275 21.9195L32.4275 21.4195C32.6608 21.2529 32.8941 21.1029 33.1275 20.9695L33.1775 20.4195C33.2108 20.1529 33.3191 19.9362 33.5025 19.7695C33.6858 19.6029 33.9108 19.5195 34.1775 19.5195H34.2775C34.5361 19.5195 34.7585 19.6112 34.9445 19.7945C35.1305 19.9779 35.2408 20.2029 35.2755 20.4695L35.3275 20.9695C35.5608 21.1009 35.7921 21.2504 36.0215 21.418C36.2508 21.5857 36.4861 21.7529 36.7275 21.9195L37.2775 21.6195C37.5108 21.4862 37.7358 21.4529 37.9525 21.5195C38.1691 21.5862 38.3608 21.7195 38.5275 21.9195L38.5775 22.0195C38.7361 22.2529 38.7925 22.4945 38.7465 22.7445C38.7005 22.9945 38.5775 23.2029 38.3775 23.3695L37.8275 23.7695C37.8861 23.9029 37.9175 24.0279 37.9215 24.1445C37.9255 24.2612 37.9275 24.3862 37.9275 24.5195C37.9275 24.6529 37.9255 24.7779 37.9215 24.8945C37.9175 25.0112 37.8861 25.1362 37.8275 25.2695L38.3775 25.6695C38.5775 25.8362 38.7005 26.0362 38.7465 26.2695C38.7925 26.5029 38.7341 26.7362 38.5715 26.9695L38.5275 27.1195C38.3608 27.3195 38.1691 27.4529 37.9525 27.5195C37.7358 27.5862 37.5108 27.5529 37.2775 27.4195L36.7275 27.1195C36.5275 27.2862 36.3025 27.4529 36.0525 27.6195C35.8025 27.7862 35.5608 27.9362 35.3275 28.0695L35.2755 28.6195C35.2408 28.8862 35.1305 29.1029 34.9445 29.2695C34.7585 29.4362 34.5361 29.5195 34.2775 29.5195H34.1775C33.9108 29.5195 33.6858 29.4279 33.5025 29.2445C33.3191 29.0612 33.2108 28.8362 33.1775 28.5695ZM34.2275 26.4195C34.7608 26.4195 35.2108 26.2362 35.5775 25.8695C35.9441 25.5029 36.1275 25.0529 36.1275 24.5195C36.1275 23.9862 35.9441 23.5362 35.5775 23.1695C35.2108 22.8029 34.7588 22.6195 34.2215 22.6195C33.6841 22.6195 33.2341 22.8029 32.8715 23.1695C32.5088 23.5362 32.3275 23.9862 32.3275 24.5195C32.3275 25.0529 32.5088 25.5029 32.8715 25.8695C33.2341 26.2362 33.6861 26.4195 34.2275 26.4195ZM38.4875 17.886L38.2375 16.836C37.9041 16.7027 37.5625 16.5194 37.2125 16.286C36.8625 16.0527 36.5708 15.8027 36.3375 15.536L34.9375 16.039C34.7041 16.1117 34.4791 16.1127 34.2625 16.042C34.0458 15.9714 33.8708 15.836 33.7375 15.636L33.5375 15.336C33.4041 15.1027 33.3625 14.8694 33.4125 14.636C33.4625 14.4027 33.5875 14.2027 33.7875 14.036L34.8875 13.186C34.8208 13.0194 34.7625 12.836 34.7125 12.636C34.6625 12.436 34.6375 12.236 34.6375 12.036C34.6375 11.836 34.6625 11.638 34.7125 11.442C34.7625 11.246 34.8208 11.0607 34.8875 10.886L33.7875 10.036C33.5875 9.87736 33.4625 9.67186 33.4125 9.41953C33.3625 9.16753 33.4041 8.94069 33.5375 8.73903L33.7375 8.48602C33.8708 8.28602 34.0458 8.14436 34.2625 8.06102C34.4791 7.97769 34.7041 7.96936 34.9375 8.03602L36.3375 8.53602C36.5708 8.27736 36.8625 8.02152 37.2125 7.76852C37.5625 7.51552 37.9041 7.33802 38.2375 7.23602L38.4875 6.18602C38.5541 5.98602 38.6708 5.81936 38.8375 5.68602C39.0041 5.55269 39.1875 5.48602 39.3875 5.48602H39.8875C40.0875 5.48602 40.2708 5.55269 40.4375 5.68602C40.6041 5.81936 40.7208 5.98602 40.7875 6.18602L41.0375 7.23602C41.3708 7.33602 41.7125 7.51303 42.0625 7.76703C42.4125 8.02103 42.7041 8.27736 42.9375 8.53602L44.3375 8.03602C44.5708 7.96936 44.7958 7.96936 45.0125 8.03602C45.2291 8.10269 45.4041 8.23602 45.5375 8.43602L45.7375 8.73602C45.8708 8.96936 45.9125 9.20469 45.8625 9.44203C45.8125 9.67936 45.6875 9.87736 45.4875 10.036L44.3875 10.886C44.4541 11.0607 44.5125 11.2469 44.5625 11.4445C44.6125 11.6425 44.6375 11.8397 44.6375 12.036C44.6375 12.236 44.6125 12.436 44.5625 12.636C44.5125 12.836 44.4541 13.0194 44.3875 13.186L45.4875 14.036C45.6875 14.2027 45.8125 14.411 45.8625 14.661C45.9125 14.911 45.8708 15.136 45.7375 15.336L45.5375 15.586C45.4041 15.786 45.2291 15.9297 45.0125 16.017C44.7958 16.1044 44.5708 16.1117 44.3375 16.039L42.9375 15.536C42.7041 15.8027 42.4125 16.0527 42.0625 16.286C41.7125 16.5194 41.3708 16.7027 41.0375 16.836L40.7875 17.886C40.7208 18.086 40.6041 18.2527 40.4375 18.386C40.2708 18.5194 40.0875 18.586 39.8875 18.586H39.3875C39.1875 18.586 39.0041 18.5194 38.8375 18.386C38.6708 18.2527 38.5541 18.086 38.4875 17.886ZM39.6375 14.936C40.4708 14.936 41.1625 14.661 41.7125 14.111C42.2625 13.561 42.5375 12.8694 42.5375 12.036C42.5375 11.2027 42.2625 10.511 41.7125 9.96102C41.1625 9.41102 40.4708 9.13602 39.6375 9.13602C38.8041 9.13602 38.1125 9.41102 37.5625 9.96102C37.0125 10.511 36.7375 11.2027 36.7375 12.036C36.7375 12.8694 37.0125 13.561 37.5625 14.111C38.1125 14.661 38.8041 14.936 39.6375 14.936Z" fill="black"/>
</svg>
