<svg width="451" height="162" viewBox="0 0 451 162" fill="none" xmlns="http://www.w3.org/2000/svg">
<path d="M9.912 97V27.112H19.704V97H9.912Z" fill="#C9FD74"/>
<path d="M59.713 74.344V97H53.633V74.216C53.633 71.7413 53.185 69.5227 52.289 67.56C51.393 65.5547 49.345 64.552 46.145 64.552C42.7317 64.552 39.4677 66.0667 36.353 69.096V97H30.273V64.04L36.097 62.312H36.353V67.816C40.2783 64.104 44.417 62.248 48.769 62.248C56.065 62.248 59.713 66.28 59.713 74.344ZM89.7045 63.016H93.4165C90.9845 67.9227 88.1045 74.3227 84.7765 82.216L77.9925 97.96H77.5445L62.5045 63.016H69.0325L80.3605 89.448L83.6885 81.832C87.2298 73.64 89.2352 67.368 89.7045 63.016ZM124.523 77.608H99.9465V78.76C99.9465 83.8373 101.056 87.8267 103.275 90.728C105.536 93.5867 108.459 95.016 112.043 95.016C114.176 95.016 116.245 94.4827 118.251 93.416C120.299 92.3493 122.005 90.8347 123.371 88.872L124.139 89.32C120.469 94.952 115.563 97.768 109.419 97.768C104.768 97.768 100.949 96.1893 97.9625 93.032C94.9758 89.832 93.4825 85.672 93.4825 80.552C93.4825 75.1333 95.1038 70.7387 98.3465 67.368C101.589 63.9547 105.707 62.248 110.699 62.248C115.136 62.248 118.571 63.6347 121.003 66.408C123.435 69.1813 124.608 72.9147 124.523 77.608ZM100.01 76.584H118.699C118.869 72.5733 118.165 69.352 116.587 66.92C115.051 64.4453 112.917 63.208 110.187 63.208C107.413 63.208 105.109 64.4453 103.275 66.92C101.44 69.352 100.352 72.5733 100.01 76.584ZM127.66 94.696L128.62 91.432C131.734 95.0587 135.66 96.872 140.396 96.872C142.913 96.872 144.918 96.2747 146.412 95.08C147.948 93.8427 148.716 92.264 148.716 90.344C148.588 88.5093 147.948 87.1227 146.796 86.184C145.686 85.2453 143.681 84.1573 140.78 82.92L138.156 81.832C136.577 81.192 134.913 80.4027 133.164 79.464C129.921 77.5013 128.299 74.8773 128.299 71.592C128.299 68.8613 129.388 66.6213 131.564 64.872C133.782 63.1227 136.662 62.248 140.204 62.248C144.47 62.248 148.161 63.144 151.276 64.936L150.38 67.944C147.18 64.744 143.596 63.144 139.628 63.144C137.409 63.144 135.638 63.6987 134.316 64.808C133.036 65.8747 132.396 67.2613 132.396 68.968C132.396 70.2053 132.78 71.272 133.548 72.168C134.273 72.9787 135.041 73.6187 135.852 74.088C136.705 74.5573 138.22 75.24 140.396 76.136L142.956 77.224C144.79 77.9493 146.412 78.7173 147.82 79.528C151.148 81.4907 152.812 84.2 152.812 87.656C152.812 90.6427 151.638 93.0747 149.292 94.952C146.945 96.8293 143.766 97.768 139.756 97.768C137.58 97.768 135.361 97.4907 133.1 96.936C130.881 96.3813 129.068 95.6347 127.66 94.696ZM176.472 93.992L176.984 94.76C173.954 96.7653 170.968 97.768 168.024 97.768C162.477 97.768 159.704 94.8453 159.704 89V64.424H154.776V63.336L159.448 63.016L165.528 52.136H165.784V63.016H176.728L175.896 64.424H165.784V88.872C165.784 90.5787 166.082 92.136 166.68 93.544C167.32 94.9093 168.749 95.592 170.968 95.592C172.802 95.592 174.637 95.0587 176.472 93.992ZM177.17 80.232C177.17 74.8987 178.813 70.568 182.098 67.24C185.426 63.912 189.607 62.248 194.642 62.248C199.591 62.248 203.645 63.8693 206.802 67.112C209.959 70.312 211.538 74.5573 211.538 79.848C211.538 85.1387 209.874 89.448 206.546 92.776C203.261 96.104 199.101 97.768 194.066 97.768C189.117 97.768 185.063 96.168 181.906 92.968C178.749 89.768 177.17 85.5227 177.17 80.232ZM205.01 80.232C205.01 75.1547 204.007 71.0373 202.002 67.88C199.997 64.7227 197.415 63.144 194.258 63.144C191.058 63.144 188.498 64.68 186.578 67.752C184.658 70.824 183.698 74.856 183.698 79.848C183.698 84.9253 184.701 89.0427 186.706 92.2C188.711 95.3147 191.293 96.872 194.45 96.872C197.65 96.872 200.21 95.3573 202.13 92.328C204.05 89.2987 205.01 85.2667 205.01 80.232ZM236.478 62.76L234.686 67.496C233.534 66.984 232.36 66.728 231.166 66.728C229.502 66.728 227.944 67.2613 226.494 68.328C225.086 69.3947 223.976 70.824 223.166 72.616V97H217.086V64.04L222.782 62.312H223.038V70.76C224.232 68.072 225.726 66.0027 227.518 64.552C229.31 63.1013 231.294 62.376 233.47 62.376C234.451 62.376 235.454 62.504 236.478 62.76Z" fill="white"/>
<path d="M62.256 147L56.112 131.704H37.936C35.5893 138.019 34.3307 143.117 34.16 147H29.744C32.0053 142.349 34.7787 135.949 38.064 127.8L38.576 126.584L49.712 99.384H49.968L69.36 147H62.256ZM38.384 130.552H55.664L47.024 109.176L39.792 127.032L38.384 130.552ZM70.545 130.36C70.4597 125.155 72.0597 120.824 75.345 117.368C78.673 113.869 82.6623 112.163 87.313 112.248C92.9023 112.248 97.1903 114.189 100.177 118.072L97.553 120.376C94.609 115.597 91.3023 113.208 87.633 113.208C84.561 113.208 82.0437 114.659 80.081 117.56C78.1183 120.461 77.137 124.259 77.137 128.952C77.137 133.987 78.2037 137.933 80.337 140.792C82.513 143.608 85.329 145.016 88.785 145.016C90.7903 145.016 92.7743 144.483 94.737 143.416C96.7423 142.349 98.4277 140.835 99.793 138.872L100.561 139.32C96.849 144.952 92.0917 147.768 86.289 147.768C81.7237 147.768 77.9477 146.147 74.961 142.904C72.017 139.661 70.545 135.48 70.545 130.36ZM134.6 112.312H134.92V161.592H128.84V142.456C125.427 145.997 121.651 147.768 117.512 147.768C113.373 147.768 109.896 146.147 107.08 142.904C104.307 139.661 102.92 135.565 102.92 130.616C102.835 125.411 104.435 121.037 107.72 117.496C111.005 113.912 114.909 112.163 119.432 112.248C123.912 112.248 127.667 113.549 130.696 116.152L134.6 112.312ZM128.84 140.856V119.8C128.029 117.837 126.835 116.28 125.256 115.128C123.677 113.933 121.928 113.336 120.008 113.336C116.808 113.336 114.248 114.851 112.328 117.88C110.408 120.867 109.448 124.899 109.448 129.976C109.448 134.968 110.344 138.829 112.136 141.56C113.928 144.291 116.381 145.656 119.496 145.656C122.909 145.656 126.024 144.056 128.84 140.856ZM171.265 141.176L172.673 145.784L166.977 147.576L165.185 142.008V141.88C161.558 145.805 157.462 147.768 152.897 147.768C145.601 147.768 141.953 143.757 141.953 135.736V114.04L147.777 112.312H148.033V135.864C148.033 138.339 148.481 140.579 149.377 142.584C150.273 144.547 152.321 145.528 155.521 145.528C157.1 145.528 158.742 145.08 160.449 144.184C162.198 143.245 163.777 141.987 165.185 140.408V114.04L171.009 112.312H171.265V141.176ZM181.911 106.936L177.559 102.584L181.911 98.232L186.263 102.584L181.911 106.936ZM178.903 147V114.04L184.663 112.312H184.919V147H178.903ZM190.285 144.696L191.245 141.432C194.359 145.059 198.285 146.872 203.021 146.872C205.538 146.872 207.543 146.275 209.037 145.08C210.573 143.843 211.341 142.264 211.341 140.344C211.213 138.509 210.573 137.123 209.421 136.184C208.311 135.245 206.306 134.157 203.405 132.92L200.781 131.832C199.202 131.192 197.538 130.403 195.789 129.464C192.546 127.501 190.924 124.877 190.924 121.592C190.924 118.861 192.013 116.621 194.189 114.872C196.407 113.123 199.287 112.248 202.829 112.248C207.095 112.248 210.786 113.144 213.901 114.936L213.005 117.944C209.805 114.744 206.221 113.144 202.253 113.144C200.034 113.144 198.263 113.699 196.941 114.808C195.661 115.875 195.021 117.261 195.021 118.968C195.021 120.205 195.405 121.272 196.173 122.168C196.898 122.979 197.666 123.619 198.477 124.088C199.33 124.557 200.845 125.24 203.021 126.136L205.581 127.224C207.415 127.949 209.037 128.717 210.445 129.528C213.773 131.491 215.437 134.2 215.437 137.656C215.437 140.643 214.263 143.075 211.917 144.952C209.57 146.829 206.391 147.768 202.381 147.768C200.205 147.768 197.986 147.491 195.725 146.936C193.506 146.381 191.693 145.635 190.285 144.696ZM223.598 106.936L219.246 102.584L223.598 98.232L227.95 102.584L223.598 106.936ZM220.59 147V114.04L226.35 112.312H226.606V147H220.59ZM253.222 143.992L253.734 144.76C250.704 146.765 247.718 147.768 244.774 147.768C239.227 147.768 236.454 144.845 236.454 139V114.424H231.526V113.336L236.198 113.016L242.278 102.136H242.534V113.016H253.478L252.646 114.424H242.534V138.872C242.534 140.579 242.832 142.136 243.43 143.544C244.07 144.909 245.499 145.592 247.718 145.592C249.552 145.592 251.387 145.059 253.222 143.992ZM260.098 106.936L255.746 102.584L260.098 98.232L264.45 102.584L260.098 106.936ZM257.09 147V114.04L262.85 112.312H263.106V147H257.09ZM268.92 130.232C268.92 124.899 270.563 120.568 273.848 117.24C277.176 113.912 281.357 112.248 286.392 112.248C291.341 112.248 295.395 113.869 298.552 117.112C301.709 120.312 303.288 124.557 303.288 129.848C303.288 135.139 301.624 139.448 298.296 142.776C295.011 146.104 290.851 147.768 285.816 147.768C280.867 147.768 276.813 146.168 273.656 142.968C270.499 139.768 268.92 135.523 268.92 130.232ZM296.76 130.232C296.76 125.155 295.757 121.037 293.752 117.88C291.747 114.723 289.165 113.144 286.008 113.144C282.808 113.144 280.248 114.68 278.328 117.752C276.408 120.824 275.448 124.856 275.448 129.848C275.448 134.925 276.451 139.043 278.456 142.2C280.461 145.315 283.043 146.872 286.2 146.872C289.4 146.872 291.96 145.357 293.88 142.328C295.8 139.299 296.76 135.267 296.76 130.232ZM338.276 124.344V147H332.196V124.216C332.196 121.741 331.748 119.523 330.852 117.56C329.956 115.555 327.908 114.552 324.708 114.552C321.294 114.552 318.03 116.067 314.916 119.096V147H308.836V114.04L314.66 112.312H314.916V117.816C318.841 114.104 322.98 112.248 327.332 112.248C334.628 112.248 338.276 116.28 338.276 124.344Z" fill="#C9FD74"/>
<circle cx="15.022" cy="122.022" r="15" transform="rotate(-52.6985 15.022 122.022)" fill="#C9FD74"/>
</svg>
