<svg width="48" height="48" viewBox="0 0 48 48" fill="none" xmlns="http://www.w3.org/2000/svg">
<path d="M38.4285 32.05C36.0315 32.05 33.9865 31.3103 32.2935 29.831C30.6008 28.3516 29.5132 26.4453 29.0305 24.112H22.4965C22.0515 24.112 21.6783 23.9621 21.377 23.6625C21.0757 23.3631 20.925 22.9881 20.925 22.5375C20.925 22.0868 21.0757 21.7126 21.377 21.415C21.6783 21.1173 22.0515 20.9685 22.4965 20.9685H29.0305C29.1235 20.0991 29.3642 19.237 29.7525 18.382C30.1412 17.5266 30.6392 16.7533 31.2465 16.062H17.7685C17.3165 16.062 16.9415 15.9121 16.6435 15.6125C16.3455 15.3131 16.1965 14.9381 16.1965 14.4875C16.1965 14.0368 16.3455 13.6626 16.6435 13.365C16.9415 13.0673 17.3165 12.9185 17.7685 12.9185H33.0445L30.3425 5.01197H23.6675C23.2222 5.01197 22.8488 4.86214 22.5475 4.56247C22.2462 4.26314 22.0955 3.88814 22.0955 3.43747C22.0955 2.9868 22.2462 2.61264 22.5475 2.31497C22.8488 2.0173 23.2222 1.86847 23.6675 1.86847H30.151C30.9047 1.86847 31.5757 2.0863 32.164 2.52197C32.7523 2.95764 33.1628 3.5188 33.3955 4.20547L36.338 12.9185H37.9285C40.8615 12.9185 43.2733 13.7891 45.164 15.5305C47.0547 17.2718 48 19.5916 48 22.49C48 25.1066 47.057 27.3541 45.171 29.2325C43.285 31.1108 41.0375 32.05 38.4285 32.05ZM38.4285 28.9185C40.1458 28.9185 41.6485 28.2791 42.9365 27.0005C44.2245 25.7218 44.8685 24.2191 44.8685 22.4925C44.8685 20.6641 44.2678 19.1393 43.0665 17.918C41.8648 16.6966 40.3527 16.082 38.53 16.074C38.494 16.074 38.3347 16.0823 38.052 16.099C37.7693 16.1156 37.614 16.124 37.586 16.124L39.05 20.1165C39.2167 20.5068 39.2063 20.8913 39.019 21.27C38.8317 21.6486 38.528 21.9253 38.108 22.1C37.7217 22.2413 37.3372 22.2176 36.9545 22.029C36.5718 21.8403 36.2972 21.556 36.1305 21.176L34.6075 17.11C33.7215 17.8686 33.0653 18.6796 32.639 19.543C32.213 20.4063 32 21.3886 32 22.49C32 24.2796 32.624 25.7985 33.872 27.0465C35.12 28.2945 36.6388 28.9185 38.4285 28.9185ZM14 46.0715C12.494 46.0715 11.2132 45.5576 10.1575 44.53C9.10183 43.502 8.55 42.2431 8.502 40.7535V40.2035H1.6315C1.16383 40.2035 0.775 40.0448 0.465 39.7275C0.155 39.4105 0 39.0183 0 38.551C0 38.0836 0.157667 37.6963 0.473 37.389C0.788333 37.082 1.1785 36.9285 1.6435 36.9285H9.826C10.2553 36.4285 10.8252 35.9868 11.5355 35.6035C12.2455 35.2201 13.0668 35.0285 13.9995 35.0285C14.8318 35.0285 15.5948 35.1951 16.2885 35.5285C16.9818 35.8618 17.6103 36.3285 18.174 36.9285H24.2965V31.0715H1.6315C1.16383 31.0715 0.775 30.913 0.465 30.596C0.155 30.279 0 29.8868 0 29.4195C0 28.9521 0.157667 28.5648 0.473 28.2575C0.788333 27.9501 1.1785 27.7965 1.6435 27.7965H4.3685V21.9285H1.6315C1.16917 21.9285 0.781667 21.7706 0.469 21.455C0.156333 21.1393 0 20.7483 0 20.282C0 19.8156 0.156333 19.4276 0.469 19.118C0.781667 18.8083 1.16917 18.6535 1.6315 18.6535H13.262C13.5727 18.6535 13.8623 18.7308 14.131 18.8855C14.3993 19.0405 14.6028 19.253 14.7415 19.523L19.6315 27.7965H24.165C25.102 27.7965 25.904 28.1301 26.571 28.7975C27.238 29.4645 27.5715 30.2665 27.5715 31.2035V36.7965C27.5715 37.7335 27.238 38.5355 26.571 39.2025C25.904 39.8698 25.102 40.2035 24.165 40.2035H19.498V40.7535C19.45 42.2511 18.8942 43.512 17.8305 44.536C16.7668 45.5596 15.49 46.0715 14 46.0715ZM7.6315 27.7965H15.8445L12.3475 21.9285H7.6315V27.7965ZM13.9975 42.9285C14.6498 42.9285 15.2097 42.6956 15.677 42.23C16.1447 41.7643 16.3785 41.2051 16.3785 40.5525C16.3785 39.9001 16.1442 39.3403 15.6755 38.873C15.2068 38.4053 14.65 38.1715 14.005 38.1715C13.351 38.1715 12.7903 38.4058 12.323 38.8745C11.8553 39.3431 11.6215 39.9 11.6215 40.545C11.6215 41.199 11.8543 41.7596 12.32 42.227C12.7857 42.6946 13.3448 42.9285 13.9975 42.9285Z" fill="black"/>
</svg>
